<svg width="140" height="170" viewBox="0 0 140 170" xmlns="http://www.w3.org/2000/svg">
  <rect width="140" height="170" fill="#000"/>
  <!-- DFW small top -->
  <text x="70" y="22" font-family="'Bebas Neue', sans-serif" font-size="13" letter-spacing="6" fill="#555" text-anchor="middle">DFW</text>
  <!-- Waveform -->
  <rect x="12"    y="76" width="7" height="18" rx="2" fill="#2a2a2a"/>
  <rect x="24"    y="71" width="7" height="28" rx="2" fill="#3a3a3a"/>
  <rect x="36"    y="65" width="7" height="40" rx="2" fill="#555"/>
  <rect x="48"    y="58" width="7" height="54" rx="2" fill="#888"/>
  <rect x="60"    y="52" width="7" height="66" rx="2" fill="#ccc"/>
  <rect x="66.5"  y="47" width="7" height="76" rx="2" fill="#f4f4f4"/>
  <rect x="73"    y="52" width="7" height="66" rx="2" fill="#ccc"/>
  <rect x="85"    y="58" width="7" height="54" rx="2" fill="#888"/>
  <rect x="97"    y="65" width="7" height="40" rx="2" fill="#555"/>
  <rect x="109"   y="71" width="7" height="28" rx="2" fill="#3a3a3a"/>
  <rect x="121"   y="76" width="7" height="18" rx="2" fill="#2a2a2a"/>
  <!-- SIGNAL big bottom -->
  <text x="70" y="152" font-family="'Bebas Neue', sans-serif" font-size="32" letter-spacing="8" fill="#f4f4f4" text-anchor="middle">SIGNAL</text>
</svg>
